Patient4_TMGait_0pt4_03_right_11_EMG.mot
version=1
nRows=16
nColumns=33
inDegrees=no
endheader
time	1LAddLong	2LGlutMax	3LGlutMed	4LIliopsoas	5LSemiMemb	6LBicFemLong	7LRecFem	8LVastMed	9LVastLat	10LGasMed	11LTibAnt	12lTibPost	13LPeroneusLong	14LSol	15LExtDigLong	16LFlexDigLong	17RAddLong	18RGlutMax	19RGlutMed	20RIliopsoas	21RSemiMemb	22RBicFemLong	23RRecFem	24RVastMed	25RVastLat	26RGasMed	27RTibAnt	28RTibPost	29RPeroneusLong	30RSol	31RExtDigLong	32RFlexDigLong
13.41	-0.000305	0.168	0.042877	0.000305	0.010071	0.002136	-0.14755	0.014191	0.19363	0.02533	-0.050201	0.000458	-0.051422	0.028076	0.034637	-0.017242	-0.004578	-0.039673	0.30853	-0.037994	0.015869	-0.13886	-0.11276	-0.18631	0.025635	-0.034943	0.049438	-0.005341	-0.011444	0.002441	-0.006104	-0.008087
13.411	-0.004425	0.18906	0.037384	0.002747	0.01297	0.00473	-0.1239	0.000763	0.13077	0.059204	-0.031128	0.002441	-0.003052	0.009003	0.063171	-0.016479	-0.004578	-0.028992	0.62088	-0.085907	0.013428	-0.085297	-0.081329	-0.1889	0.015259	-0.040588	0.18341	0.003204	-0.27054	-0.00412	-0.002747	0.00061
13.412	0.005035	0.19211	0.022278	0.00473	0.011444	-0.009918	-0.097504	-0.026398	0.048523	0.045319	-0.005646	0.006104	0.008087	-0.017395	0.089417	-0.007019	-0.010071	-0.016327	0.37231	-0.12192	-0.003357	-0.096893	-0.065002	-0.19302	0.017395	-0.047302	0.30685	-0.000153	-0.12253	0.059814	0.000153	0.001068
13.413	-0.010681	0.18494	0.008545	0.005035	0.009766	-0.002441	0.000153	-0.020599	-0.023193	0.039825	0.016022	0.007477	0.020752	-0.001373	0.079803	-0.005798	-0.007019	-0.028839	-0.14404	0.009918	0.001526	-0.098877	-0.054016	-0.19302	0.025482	-0.046539	0.23254	-0.005341	0.10407	0.058289	0.002136	-0.001373
13.414	-0.007477	0.16769	-0.014496	0.012512	0.009155	0.001984	-0.039215	0.00061	0.010071	0.011292	0.043488	0.002899	-0.023193	-0.007782	0.068359	-0.019684	-0.002441	-0.024261	-0.045013	0.18478	0.016022	-0.095062	-0.027618	-0.12833	0.035553	-0.048523	0.35278	-0.001068	-0.061951	-0.006714	-0.003967	-0.012054
13.415	-0.000153	0.21011	-0.11932	0.009155	-0.009613	0.02594	-0.053558	0.013428	-0.011749	-0.014648	0.06546	0.003357	-0.065765	-0.010071	0.033417	-0.018768	0.001221	-0.034332	0.27115	0.30182	0.016327	-0.11017	0.069122	-0.077667	0.026703	-0.045166	0.09552	-0.003357	-0.32623	-0.072937	-0.004272	-0.001526
13.416	-0.001221	0.18326	-0.23956	0.011292	-0.018616	0.007782	-0.087433	0.007324	-0.043488	-0.016937	0.063934	-0.001831	-0.073242	-0.071259	-0.021515	-0.007782	0.000763	-0.057373	0.20172	0.25223	0.002289	-0.11215	0.23346	-0.048676	0.040894	-0.041504	-0.23697	0.004425	-0.053253	-0.12344	-0.001373	-0.011597
13.417	-0.000153	0.21744	-0.18097	0.011749	-0.030518	0.005493	-0.047302	0.014191	0.014343	0.001221	0.036926	0.000458	-0.022583	-0.051575	-0.04364	0.001984	0.007629	-0.08316	0.099182	0.16235	0.001373	-0.11246	0.30533	0.018616	0.020905	-0.040131	-0.62714	0.001678	0.28427	-0.11368	0.002747	-0.008698
13.418	-0.006714	0.24155	-0.077362	0.008698	-0.030212	0.018616	-0.036774	0.008698	0.12238	0.030212	0.021667	0.00061	0.02182	0.029297	-0.042725	0.018158	0.004578	0.003052	-0.12161	0.038147	0.007935	-0.1387	0.3125	0.027771	0.036011	-0.03891	-0.72357	0.002899	0.20783	-0.10712	0.000305	-0.015259
13.419	-0.009308	0.21652	0.033722	0.002594	-0.064087	0.003357	-0.023956	0.008392	0.08606	0.002441	0.012512	0.010529	0.016479	0.14252	-0.026855	0.009766	0.005188	-0.010376	0.051575	-0.063629	0.007629	-0.13138	0.22812	0.10239	0.043945	-0.03067	-0.50247	0.002899	0.30533	-0.095978	0.000458	-0.007324
13.42	-0.007935	0.19974	0.040894	-0.007782	0.017242	-0.081024	-0.001984	0.005798	0.062256	-0.027771	-0.003357	0.001678	-0.037994	0.061035	0.006104	-0.003204	0.009613	-0.036316	0.14328	-0.10696	0.000305	-0.16007	0.092316	0.011292	0.033112	-0.028076	-0.052643	-0.001984	0.2272	-0.072327	-0.002594	-0.014343
13.421	0.004272	0.20721	0.13809	0.007935	0.10086	-0.066376	0.023804	-0.030518	0.074005	-0.059509	-0.032043	0.00473	-0.013885	-0.088196	0.028687	0.002747	0.004883	-0.024567	0.32562	-0.17364	0.006104	-0.17075	0.085144	-0.032959	0.02243	-0.040131	0.09613	0.001068	0.037689	0.082703	0.000763	-0.011597
13.422	0.006866	0.24628	0.18188	0.010071	0.084076	0.023804	0.063477	0.015869	0.07843	-0.042114	-0.035706	0.006409	-0.052032	-0.014801	0.038605	0.007782	0.006256	-0.028534	-0.40085	-0.14038	0.005646	-0.17685	0.001221	-0.029144	0.029755	-0.039215	0.074768	-0.003052	0.11215	0.16541	0.00061	-0.006409
13.423	-0.002899	0.27283	0.25101	0.006256	0.045471	0.046539	0.033417	0.014191	0.046082	-0.029755	-0.023651	-0.000153	-0.075531	0.052795	0.029755	0.01236	0.011597	-0.000458	-0.32349	-0.050354	0.002136	-0.2066	-0.012054	-0.056763	0.036926	-0.037689	-0.000916	0.001526	0.24719	0.070801	0.000153	-0.005493
13.424	-0.004883	0.24597	0.13992	0.027161	-0.006256	0.054321	0.036163	-0.00473	0.040131	-0.049133	-0.006866	0.004578	-0.02594	0.063782	0.019379	0.004578	0.002594	0.027771	-0.68481	0.065918	0.000153	-0.22034	-0.08667	-0.027161	0.030823	-0.033569	-0.06073	-0.001373	-0.28976	0.048523	-0.001373	-0.007324
13.425	0.003815	0.19211	0.079651	0.019836	-0.00061	-0.000305	0.00061	-0.001373	0.036774	-0.006714	-0.003967	0.006104	0.00885	0.029602	0.019379	-0.005798	0.006256	0.004272	-0.6427	0.11643	0.004578	-0.24857	-0.052795	-0.075684	0.026245	-0.027924	0.089264	-0.002594	-0.18997	0.034943	-0.000153	-0.009003
